<svg width="580" height="400" xmlns="http://www.w3.org/2000/svg">
 <!-- Created with Method Draw - http://github.com/duopixel/Method-Draw/ -->


 <g>
  <title>Layer 1</title>
  <g stroke="null" id="svg_17">
   <path stroke="null" fill="#62b7e2" id="svg_5" d="m272.889233,10.932722c-5.893409,1.861077 -17.059868,9.925741 -25.124533,17.680227c-23.263456,23.263456 -26.985609,51.179604 -11.476638,87.780776c7.754485,17.990406 35.360454,66.998754 50.559245,89.952031l10.235921,14.888612l20.471842,-33.499377c11.476638,-18.300586 26.67543,-45.286195 33.809557,-59.864628c21.712559,-44.665836 19.231124,-76.304137 -8.374844,-101.738849c-19.541303,-18.300586 -44.045477,-23.263456 -70.100549,-15.198792zm45.906554,18.920945c18.920945,9.925741 31.638301,31.94848 30.087404,52.110142c-0.620359,6.513768 -5.27305,21.0922 -10.85628,32.568839c-11.166459,23.883815 -36.601171,68.239472 -40.323324,70.720908c-3.411974,2.171256 -35.980813,-53.040681 -45.906554,-77.544855c-14.578433,-35.670633 -4.962871,-66.998754 24.193995,-78.785572c11.476638,-4.342512 33.189198,-4.032332 42.80476,0.930538z"/>
   <path stroke="null" fill="#62b7e2" id="svg_7" d="m233.186268,164.781714l-10.5461,5.58323l19.231124,8.064665c10.5461,4.652691 19.541303,8.374844 20.161662,8.374844c0.930538,0 -2.481435,-6.203588 -7.134127,-13.958074c-4.652691,-7.754485 -8.995203,-13.958074 -9.925741,-13.958074c-0.930538,0.310179 -6.203588,2.791615 -11.786818,5.893409z"/>
   <path stroke="null" fill="#62b7e2" id="svg_8" d="m330.582605,182.77212l-14.578433,23.883815l7.134127,5.893409c4.032332,3.101794 21.0922,12.407177 38.152069,20.471842l31.017942,14.888612l23.263456,-10.85628c12.717356,-5.893409 28.536507,-13.027536 34.740095,-15.81915c6.513768,-2.791615 11.786818,-5.893409 11.786818,-6.823947c0,-1.240718 -93.984364,-46.216733 -114.766385,-54.901757c-1.240718,-0.310179 -8.685024,9.925741 -16.749689,23.263456z"/>
   <path stroke="null" fill="#9e9e9c" id="svg_9" d="m166.497693,200.452347l-33.809557,16.12933l33.189198,15.81915l33.189198,15.81915l27.605968,-12.717356c15.198792,-6.823947 29.467045,-15.508971 31.94848,-19.231124c4.652691,-6.823947 4.032332,-7.444306 -21.712559,-19.851483c-14.578433,-7.134127 -28.846686,-12.717356 -31.638301,-12.407177c-3.101794,0 -20.471842,7.444306 -38.772427,16.439509z"/>
   <path stroke="null" fill="#62b7e2" id="svg_10" d="m64.448664,243.567286c-22.022739,10.235921 -39.702966,19.541303 -39.702966,20.782021c0,0.930538 7.444306,4.962871 16.749689,8.995203l16.439509,6.823947l24.504174,-11.476638c13.647894,-6.203588 32.25866,-14.578433 41.564042,-18.920945l17.059868,-7.754485l-8.995203,-4.652691c-26.67543,-13.958074 -24.814354,-14.268253 -67.619113,6.203588z"/>
   <path stroke="null" fill="#9e9e9c" id="svg_11" d="m466.75137,235.192442c-8.374844,4.032332 -30.087404,14.268253 -48.07781,22.643098l-32.568839,15.198792l36.911351,17.370047c20.161662,9.615562 38.462248,17.370047 40.323324,17.370047c4.652691,0 94.604723,-41.564042 94.914902,-43.735298c0,-1.550897 -66.068216,-33.499377 -74.132881,-35.980813c-0.930538,-0.310179 -8.685024,2.791615 -17.370047,7.134127z"/>
   <path stroke="null" fill="#62b7e2" id="svg_12" d="m313.212558,236.743339c-4.342512,1.861077 -14.578433,2.481435 -22.953277,1.550897c-13.337715,-1.550897 -19.231124,0 -41.253863,9.925741c-13.958074,6.203588 -25.744892,12.407177 -25.744892,13.337715c0,0.930538 15.198792,8.995203 34.119736,17.680227l33.809557,15.81915l39.082607,-17.990406c21.40238,-9.925741 40.013145,-19.231124 40.943683,-20.161662c1.861077,-1.861077 -42.80476,-23.883815 -47.767631,-23.263456c-1.240718,0 -5.893409,1.550897 -10.235921,3.101794z"/>
   <path stroke="null" fill="#9e9e9c" id="svg_13" d="m124.313292,272.413972c-19.541303,9.305383 -34.740095,17.370047 -34.119736,17.990406c3.101794,3.101794 96.465799,45.286195 100.187952,45.286195c2.171256,0 19.851483,-7.444306 39.082607,-16.439509l34.740095,-16.12933l-49.008348,-22.953277c-27.295789,-12.407177 -50.559245,-23.263456 -52.420322,-23.573636c-1.550897,-0.620359 -18.920945,6.513768 -38.462248,15.81915z"/>
   <path stroke="null" fill="#62b7e2" id="svg_14" d="m281.574278,316.459453c-38.462274,18.300593 -69.790376,33.809553 -69.170013,35.050279c0.620363,0.930544 19.851445,10.235931 42.804759,20.781989l41.253852,19.231137l69.790376,-32.568827c38.152038,-17.68023 71.341228,-33.499372 73.822679,-34.740097c2.791633,-1.861088 -8.374843,-8.685024 -36.601186,-22.022715c-22.643077,-10.546113 -43.425066,-19.231137 -46.216699,-18.920956c-2.791633,0.310181 -36.911367,15.198779 -75.683767,33.18919z"/>
   <ellipse stroke="null" ry="26.949463" rx="27.640475" id="svg_16" cy="77.051033" cx="297.028178" stroke-opacity="null" stroke-width="null" fill="#9e9e9c"/>
  </g>
 </g>
</svg>